<?xml version="1.0" encoding="UTF-8"?>
<svg id="_레이어_1" data-name="레이어 1" xmlns="http://www.w3.org/2000/svg" viewBox="0 0 17.37 24">
  <defs>
    <style>
      .cls-1 {
        fill: #fdfdfd;
      }
    </style>
  </defs>
  <path class="cls-1" d="M8.52,24c-.7-.12-1.24-.56-1.84-.89-2.18-1.21-4.35-2.44-6.52-3.67-.04-.02-.09-.05-.16-.09,.15-.14,.29-.27,.42-.4,2.76-2.78,5.52-5.55,8.28-8.33,1.82-1.83,3.64-3.67,5.46-5.5,.26-.26,.58-.28,.82-.04,.14,.14,.15,.34,.18,.52,.2,1.21,.39,2.41,.58,3.62,.17,1.03,.33,2.07,.5,3.1,.16,.98,.32,1.97,.48,2.95,.17,1.09,.35,2.18,.52,3.26,.04,.24,.08,.48,.12,.72,.01,.08,0,.13-.08,.17-2.6,1.45-5.19,2.9-7.79,4.34-.21,.12-.46,.16-.69,.24h-.28Z"/>
  <path class="cls-1" d="M3.6,0c.23,.08,.35,.27,.46,.48,.79,1.49,1.58,2.98,2.38,4.47,.04,.08,.05,.14,0,.22-1.91,3.41-3.81,6.83-5.72,10.24-.04,.07-.07,.13-.13,.19,.04-.27,.08-.54,.12-.81,.13-.86,.27-1.72,.4-2.59,.14-.9,.28-1.81,.42-2.71,.14-.9,.28-1.81,.42-2.71,.13-.85,.27-1.7,.4-2.55,.11-.74,.23-1.47,.34-2.21,.08-.51,.16-1.03,.24-1.54,.04-.25,.19-.41,.43-.49h.23Z"/>
  <path class="cls-1" d="M.28,17.89c.32-.58,.64-1.15,.96-1.73,2.16-3.87,4.33-7.75,6.49-11.62,.16-.28,.32-.56,.47-.85,.11-.2,.28-.32,.5-.31,.23,0,.39,.13,.5,.33,.58,1.11,1.16,2.22,1.75,3.33,.05,.09,.02,.13-.04,.19-1.15,1.15-2.3,2.31-3.45,3.46-2.35,2.37-4.71,4.74-7.06,7.1-.04,.04-.06,.08-.09,.12-.01-.01-.02-.02-.03-.03Z"/>
</svg>