<?xml version="1.0" encoding="utf-8"?>
<!-- Generator: Adobe Illustrator 26.5.0, SVG Export Plug-In . SVG Version: 6.00 Build 0)  -->
<svg version="1.1" id="레이어_1" xmlns="http://www.w3.org/2000/svg" xmlns:xlink="http://www.w3.org/1999/xlink" x="0px"
	 y="0px" viewBox="0 0 24 24" style="enable-background:new 0 0 24 24;" xml:space="preserve">
<style type="text/css">
	.st0{fill-rule:evenodd;clip-rule:evenodd;fill:#FEFEFF;}
</style>
<g>
	<path class="st0" d="M23.4,17.8L23.3,18c-1.8,3.6-5.1,5.8-9.7,5.8c-2.2,0-4.2-0.5-5.6-1.1c-2.9-1.3-5.3-3.7-6.7-6.3
		c-1.9-3.7-2.3-8.9,1.7-12.7c0.1,0-0.5,0.8-0.4,0.8L2.6,4.9c-2.9,9,6,16.7,14.6,15.8C19.2,20.5,21.8,19.4,23.4,17.8L23.4,17.8
		L23.4,17.8z M23.4,17.8L23.4,17.8L23.4,17.8L23.4,17.8z"/>
	<path class="st0" d="M18.2,14c2.2,0,4.4-1,5.8-2.4c-1.2,3-4.6,4.9-9.1,4.3c-3.8-0.5-7.4-4.3-7.8-8.2C6.8,4.9,7.8,3.3,9.4,1.3
		C8.9,2.3,8.6,3.1,8.6,3.6C8,9.7,13.4,14,18.2,14L18.2,14L18.2,14z M18.2,14L18.2,14L18.2,14L18.2,14z"/>
	<path class="st0" d="M23.8,6.6c-0.3,0.8-2.3,2.2-3.1,2.4c-3.4,0.7-5.5-0.9-6.7-2.7c-0.2-0.3-0.5-1-0.5-1.2
		c-0.4-1.5-0.2-3.8,1.1-4.9c-0.4,1.1-0.5,2.4-0.2,3.3c0.1,0.5,0.5,1.4,0.9,2c0.7,1,1.1,1.3,2,1.8c0.4,0.2,0.8,0.4,1,0.5
		C19.1,7.9,20.9,8.5,23.8,6.6L23.8,6.6L23.8,6.6z M23.8,6.6L23.8,6.6L23.8,6.6L23.8,6.6z"/>
</g>
</svg>
