<?xml version="1.0" encoding="utf-8"?>
<!-- Generator: Adobe Illustrator 26.5.0, SVG Export Plug-In . SVG Version: 6.00 Build 0)  -->
<svg version="1.1" id="레이어_1" xmlns="http://www.w3.org/2000/svg" xmlns:xlink="http://www.w3.org/1999/xlink" x="0px"
	 y="0px" viewBox="0 0 24 24" style="enable-background:new 0 0 24 24;" xml:space="preserve">
<style type="text/css">
	.st0{fill:#FEFEFF;}
</style>
<g>
	<path class="st0" d="M7.3,14.1c1.2,0,2.2-1,2.2-2.2s-1-2.2-2.2-2.2s-2.2,1-2.2,2.2S6.1,14.1,7.3,14.1z M2.2,18.5
		c1.2,0,2.2-1,2.2-2.2s-1-2.2-2.2-2.2S0,15.1,0,16.3S1,18.5,2.2,18.5z M21.8,18.5c1.2,0,2.2-1,2.2-2.2s-1-2.2-2.2-2.2
		c-1.2,0-2.2,1-2.2,2.2S20.6,18.5,21.8,18.5z"/>
	<path class="st0" d="M14.7,12.1c-0.1-0.7-0.1-1.3-0.7-1.8c-0.7-0.5-1.5-0.2-2.5-0.5c-1-0.2-1.7-1.1-1.7-2.1c0-1.2,1-2.2,2.2-2.2
		c0.9,0,1.7,0.5,2,1.3c0.5,1,0.2,2,0.8,2.5c0.8,0.6,1.8,0.2,3,0.7c0.4,0.2,0.7,0.4,0.9,0.8c0.2,0.3,0.4,0.7,0.4,1.2
		c0,1-0.7,1.9-1.7,2.1c-1,0.4-1.8,0-2.5,0.5c-0.8,0.6-0.4,1.6-1,2.7c-0.4,0.7-1.1,1.2-2,1.2c-1.2,0-2.2-1-2.2-2.2
		c0-0.9,0.5-1.6,1.3-2c1.2-0.6,2.2-0.1,3-0.7C14.6,13.3,14.7,12.8,14.7,12.1z"/>
</g>
</svg>
