<?xml version="1.0"?>
<svg width="24" height="24" xmlns="http://www.w3.org/2000/svg" xmlns:svg="http://www.w3.org/2000/svg">
 <title>Redux</title>
 <g class="layer">
  <title>Layer 1</title>
  <path d="m16.63,16.5c0.87,-0.07 1.55,-0.84 1.5,-1.75c-0.04,-0.91 -0.79,-1.65 -1.7,-1.65l-0.07,0a1.71,1.71 0 0 0 -1.64,1.77c0.03,0.48 0.22,0.87 0.49,1.15c-1.05,2.04 -2.62,3.54 -5,4.8c-1.61,0.84 -3.3,1.15 -4.95,0.93c-1.38,-0.2 -2.45,-0.81 -3.11,-1.8c-0.99,-1.5 -1.08,-3.12 -0.26,-4.73c0.6,-1.17 1.5,-2.03 2.1,-2.45a9.96,9.96 0 0 1 -0.42,-1.54c-4.44,3.18 -3.99,7.52 -2.64,9.57c1.01,1.5 3.06,2.46 5.31,2.46c0.6,0 1.23,-0.04 1.84,-0.19c3.9,-0.75 6.85,-3.09 8.54,-6.53l0.01,-0.04zm5.35,-3.74c-2.32,-2.73 -5.74,-4.23 -9.63,-4.23l-0.51,0c-0.26,-0.55 -0.84,-0.9 -1.5,-0.9l-0.05,0c-0.94,0 -1.67,0.81 -1.64,1.76c0.03,0.89 0.79,1.64 1.71,1.64l0.07,0a1.69,1.69 0 0 0 1.5,-1.05l0.55,0c2.31,0 4.5,0.68 6.49,2c1.53,1 2.62,2.32 3.24,3.89c0.54,1.29 0.51,2.55 -0.05,3.6c-0.85,1.65 -2.29,2.52 -4.19,2.52c-1.2,0 -2.37,-0.38 -2.97,-0.65c-0.36,0.3 -0.96,0.8 -1.39,1.1c1.32,0.6 2.65,0.94 3.94,0.94c2.92,0 5.09,-1.65 5.92,-3.24c0.89,-1.79 0.82,-4.82 -1.47,-7.41l-0.02,0.03zm-15.49,4.28c0.03,0.9 0.79,1.65 1.71,1.65l0.06,0a1.69,1.69 0 0 0 1.65,-1.77c0,-0.9 -0.78,-1.64 -1.7,-1.64l-0.06,0c-0.06,0 -0.15,0 -0.22,0.02c-1.25,-2.09 -1.77,-4.34 -1.57,-6.77c0.12,-1.83 0.72,-3.41 1.79,-4.73c0.9,-1.13 2.6,-1.68 3.75,-1.71c3.24,-0.06 4.58,3.97 4.69,5.57l1.5,0.45c-0.35,-4.91 -3.4,-7.49 -6.33,-7.49c-2.74,0 -5.27,1.99 -6.29,4.92c-1.39,3.89 -0.48,7.64 1.23,10.63c-0.15,0.2 -0.24,0.54 -0.21,0.87z" fill="#ffffff" id="svg_1"/>
 </g>
</svg>