<?xml version="1.0"?>
<svg width="24" height="24" xmlns="http://www.w3.org/2000/svg" xmlns:svg="http://www.w3.org/2000/svg">
 <title>TypeScript</title>
 <g class="layer">
  <title>Layer 1</title>
  <path d="m1.13,0c-0.63,0 -1.13,0.5 -1.13,1.13l0,21.75c0,0.62 0.5,1.12 1.13,1.12l21.75,0c0.62,0 1.12,-0.5 1.12,-1.12l0,-21.75c0,-0.63 -0.5,-1.13 -1.12,-1.13l-21.75,0zm17.36,9.75c0.61,0 1.15,0.04 1.62,0.11a6.38,6.38 0 0 1 1.31,0.34l0,2.46a3.95,3.95 0 0 0 -0.64,-0.36a5.09,5.09 0 0 0 -0.72,-0.26a5.45,5.45 0 0 0 -1.43,-0.2c-0.3,0 -0.57,0.03 -0.81,0.08a2.1,2.1 0 0 0 -0.63,0.25c-0.17,0.1 -0.3,0.23 -0.39,0.37a0.89,0.89 0 0 0 -0.14,0.49c0,0.2 0.05,0.37 0.16,0.53c0.1,0.16 0.25,0.3 0.44,0.44s0.42,0.28 0.69,0.41c0.28,0.14 0.59,0.28 0.93,0.42c0.47,0.2 0.89,0.41 1.27,0.63c0.37,0.22 0.69,0.47 0.96,0.75c0.27,0.28 0.47,0.6 0.61,0.96c0.15,0.36 0.22,0.77 0.22,1.25c0,0.66 -0.13,1.21 -0.38,1.66a3.03,3.03 0 0 1 -1.01,1.08a4.38,4.38 0 0 1 -1.48,0.6c-0.57,0.12 -1.17,0.18 -1.79,0.18a9.92,9.92 0 0 1 -1.84,-0.17a5.54,5.54 0 0 1 -1.52,-0.49l0,-2.63a5.03,5.03 0 0 0 3.24,1.2c0.33,0 0.62,-0.03 0.87,-0.09c0.25,-0.06 0.46,-0.14 0.63,-0.25c0.16,-0.11 0.29,-0.23 0.37,-0.38a1.02,1.02 0 0 0 -0.08,-1.09a2.12,2.12 0 0 0 -0.53,-0.5a5.6,5.6 0 0 0 -0.81,-0.44a27.72,27.72 0 0 0 -1.01,-0.44c-0.91,-0.38 -1.6,-0.85 -2.05,-1.4c-0.45,-0.56 -0.68,-1.23 -0.68,-2.01c0,-0.61 0.13,-1.14 0.37,-1.58c0.25,-0.44 0.58,-0.8 1.01,-1.09a4.49,4.49 0 0 1 1.47,-0.63a7.54,7.54 0 0 1 1.77,-0.2zm-15.11,0.19l9.56,0l0,2.16l-3.43,0l0,9.65l-2.72,0l0,-9.65l-3.41,0l0,-2.16z" fill="#ffffff" id="svg_1"/>
 </g>
</svg>